<svg width="749" height="181" viewBox="0 0 749 181" fill="none" xmlns="http://www.w3.org/2000/svg">
<rect x="0.5" y="0.5" width="748" height="180" rx="4.5" stroke="#9747FF" stroke-dasharray="10 5"/>
<path d="M498.927 91.4477V43.4448H513.79C519.152 43.4448 523.371 44.728 526.448 47.2944C529.548 49.8385 531.097 53.331 531.097 57.772C531.097 60.6285 530.419 63.1168 529.061 65.2369C527.726 67.357 525.815 69.0084 523.326 70.1912L538.597 91.4477H526.788L513.858 72.0323H508.802V91.4477H498.927ZM508.802 63.764H514.367C516.449 63.764 518.066 63.2396 519.22 62.1907C520.374 61.1195 520.951 59.602 520.951 57.6381C520.951 55.8081 520.374 54.3687 519.22 53.3198C518.066 52.271 516.449 51.7465 514.367 51.7465H508.802V63.764Z" fill="#E10E17"/>
<path d="M540.905 74.1747C540.905 70.7379 541.595 67.6248 542.975 64.8352C544.355 62.0233 546.425 59.7693 549.185 58.0733C551.945 56.3772 555.18 55.5292 558.89 55.5292C563.709 55.5292 567.6 56.9798 570.564 59.8809C573.527 62.7597 575.009 66.4755 575.009 71.028C575.009 72.7464 574.828 74.3867 574.466 75.9488H549.931C550.203 78.783 551.277 81.0035 553.155 82.6103C555.033 84.1948 557.476 84.987 560.485 84.987C562.363 84.987 564.071 84.63 565.609 83.9158C567.148 83.1794 568.392 82.1751 569.342 80.9031L575.654 85.8239C574.003 88.0109 571.853 89.7293 569.206 90.979C566.559 92.2064 563.607 92.8201 560.349 92.8201C557.318 92.8201 554.558 92.3292 552.069 91.3473C549.581 90.343 547.533 88.9929 545.927 87.2968C544.321 85.5784 543.076 83.6034 542.194 81.3718C541.334 79.1178 540.905 76.7188 540.905 74.1747ZM550.508 69.3878H566.254C566.186 67.5578 565.496 66.0068 564.184 64.7348C562.872 63.4404 561.107 62.7932 558.89 62.7932C554.456 62.7932 551.662 64.9914 550.508 69.3878ZM555.293 51.4118L562.521 40.0303H572.091L563.777 51.4118H555.293Z" fill="#E10E17"/>
<path d="M583.663 91.4477V56.9016H592.486V59.6466C595.359 56.9016 598.809 55.5292 602.836 55.5292C606.795 55.5292 610.053 56.8682 612.609 59.5462C615.166 62.2018 616.444 65.9845 616.444 70.8941V91.4477H607.485V71.2289C607.485 68.9303 606.874 67.1115 605.653 65.7725C604.431 64.4335 602.746 63.764 600.596 63.764C597.225 63.764 594.522 65.4712 592.486 68.8856V91.4477H583.663Z" fill="#E10E17"/>
<path d="M626.353 83.5811C624.769 80.7469 623.978 77.6114 623.978 74.1747C623.978 70.7379 624.769 67.6024 626.353 64.7682C627.959 61.934 630.233 59.6912 633.174 58.0398C636.115 56.3661 639.441 55.5292 643.151 55.5292C646.861 55.5292 650.187 56.3661 653.128 58.0398C656.069 59.6912 658.331 61.934 659.915 64.7682C661.521 67.6024 662.324 70.7379 662.324 74.1747C662.324 77.6114 661.521 80.7469 659.915 83.5811C658.331 86.4153 656.069 88.6693 653.128 90.343C650.187 91.9944 646.861 92.8201 643.151 92.8201C639.441 92.8201 636.115 91.9944 633.174 90.343C630.233 88.6693 627.959 86.4153 626.353 83.5811ZM636.024 66.7098C634.101 68.6736 633.14 71.1619 633.14 74.1747C633.14 77.1874 634.101 79.6757 636.024 81.6395C637.947 83.6034 640.368 84.5853 643.287 84.5853C646.115 84.5853 648.467 83.5923 650.345 81.6061C652.223 79.6199 653.162 77.1428 653.162 74.1747C653.162 71.1619 652.223 68.6736 650.345 66.7098C648.467 64.7459 646.115 63.764 643.287 63.764C640.368 63.764 637.947 64.7459 636.024 66.7098Z" fill="#E10E17"/>
<path d="M664.971 56.9016H674.439L683.534 81.5726L692.56 56.9016H702.096L689.302 91.4477H677.697L664.971 56.9016Z" fill="#E10E17"/>
<path d="M706.745 63.1949L712.989 43.4448H723L714.957 63.1949H706.745Z" fill="#E10E17"/>
<path d="M26 91.4477L44.1797 43.4448H56.9592L75.1725 91.4477H64.8081L60.2128 78.9616H40.9597L36.3645 91.4477H26ZM43.9785 70.6598H57.194L50.5863 52.6503L43.9785 70.6598Z" fill="#253472"/>
<path d="M83.5245 91.4477V56.9016H92.2454V59.5127C94.9735 56.857 98.1488 55.5292 101.771 55.5292C104.075 55.5292 106.165 56.0425 108.044 57.069C109.944 58.0956 111.454 59.5908 112.572 61.5547C114.07 59.7024 115.714 58.2406 117.502 57.1694C119.291 56.0759 121.427 55.5292 123.909 55.5292C127.643 55.5292 130.707 56.8012 133.1 59.3453C135.492 61.8894 136.688 65.5047 136.688 70.1912V91.4477H127.9V70.5259C127.9 68.4282 127.353 66.7767 126.257 65.5716C125.161 64.3665 123.641 63.764 121.695 63.764C118.878 63.764 116.474 65.4043 114.484 68.6848C114.528 68.9972 114.551 69.4993 114.551 70.1912V91.4477H105.696V70.5259C105.696 68.4058 105.159 66.7544 104.086 65.5716C103.035 64.3665 101.537 63.764 99.5911 63.764C98.6519 63.764 97.7798 63.9202 96.9748 64.2326C96.1698 64.5228 95.4654 64.9579 94.8617 65.5382C94.2803 66.0961 93.7995 66.6205 93.4194 67.1115C93.0392 67.6024 92.6479 68.1938 92.2454 68.8856V91.4477H83.5245Z" fill="#253472"/>
<path d="M146.65 91.4477V40.0303H155.371V59.3788C158.211 56.8124 161.8 55.5292 166.138 55.5292C168.822 55.5292 171.281 56.0313 173.518 57.0355C175.754 58.0175 177.61 59.3676 179.086 61.086C180.561 62.7821 181.702 64.7571 182.507 67.011C183.334 69.265 183.748 71.6529 183.748 74.1747C183.748 76.6964 183.334 79.0843 182.507 81.3383C181.702 83.5923 180.561 85.5784 179.086 87.2968C177.61 88.9929 175.754 90.343 173.518 91.3473C171.281 92.3292 168.822 92.8201 166.138 92.8201C161.8 92.8201 158.211 91.5369 155.371 88.9705V91.4477H146.65ZM155.371 79.4637L155.438 79.3967C157.809 82.8558 160.962 84.5853 164.897 84.5853C167.827 84.5853 170.186 83.6146 171.975 81.673C173.764 79.7092 174.658 77.2097 174.658 74.1747C174.658 71.1396 173.764 68.6513 171.975 66.7098C170.186 64.7459 167.827 63.764 164.897 63.764C160.962 63.764 157.809 65.4935 155.438 68.9526L155.371 68.8856V79.4637Z" fill="#253472"/>
<path d="M189.048 82.3425C189.048 79.6645 190.043 77.3882 192.033 75.5137C194.045 73.6167 196.896 72.367 200.586 71.7645L211.051 69.9903V69.0865C211.051 67.2788 210.436 65.8394 209.206 64.7682C207.976 63.6747 206.366 63.128 204.376 63.128C202.677 63.128 201.156 63.485 199.814 64.1992C198.473 64.891 197.411 65.9064 196.628 67.2454L190.154 62.3915C191.72 60.2268 193.755 58.5419 196.259 57.3368C198.764 56.1317 201.559 55.5292 204.645 55.5292C209.475 55.5292 213.209 56.8012 215.848 59.3453C218.509 61.8671 219.839 65.1141 219.839 69.0865V91.4477H211.051V88.2341C209.933 89.6177 208.435 90.7224 206.556 91.5481C204.7 92.3961 202.766 92.8201 200.754 92.8201C197.243 92.8201 194.414 91.8829 192.268 90.0083C190.121 88.1337 189.048 85.5784 189.048 82.3425ZM197.701 81.9743C197.701 83.0901 198.137 84.0163 199.009 84.7527C199.904 85.4668 201.078 85.8239 202.531 85.8239C206.176 85.8239 209.016 84.206 211.051 80.9701V76.2166L202.867 77.656C199.423 78.214 197.701 79.6534 197.701 81.9743Z" fill="#253472"/>
<path d="M226.816 86.4265L232.585 81.104C235 84.1613 237.65 85.69 240.534 85.69C241.876 85.69 242.916 85.3553 243.654 84.6858C244.414 84.0163 244.794 83.1571 244.794 82.1082C244.794 81.3048 244.492 80.6018 243.889 79.9993C243.307 79.3967 242.536 78.8946 241.574 78.4929C240.635 78.0689 239.595 77.656 238.455 77.2543C237.314 76.8303 236.163 76.3282 235 75.748C233.86 75.1678 232.809 74.4983 231.847 73.7395C230.908 72.9584 230.136 71.9207 229.533 70.6263C228.951 69.332 228.661 67.8368 228.661 66.1407C228.661 63.0833 229.812 60.5504 232.115 58.5419C234.441 56.5334 237.381 55.5292 240.937 55.5292C243.531 55.5292 245.968 56.0759 248.249 57.1694C250.53 58.263 252.33 59.6801 253.649 61.4208L247.813 66.6428C245.733 63.9872 243.464 62.6593 241.004 62.6593C239.729 62.6593 238.746 62.9383 238.052 63.4962C237.381 64.0541 237.046 64.824 237.046 65.806C237.046 66.587 237.337 67.2788 237.918 67.8814C238.522 68.4616 239.293 68.9637 240.233 69.3878C241.194 69.7895 242.245 70.2023 243.385 70.6263C244.548 71.028 245.7 71.519 246.84 72.0992C247.981 72.6571 249.021 73.3266 249.96 74.1077C250.921 74.8665 251.693 75.8819 252.274 77.1539C252.878 78.426 253.18 79.8989 253.18 81.5726C253.113 85.054 251.872 87.7989 249.457 89.8074C247.042 91.8159 244.112 92.8201 240.669 92.8201C235.011 92.8201 230.394 90.6889 226.816 86.4265Z" fill="#253472"/>
<path d="M257.741 86.4265L263.511 81.104C265.926 84.1613 268.576 85.69 271.46 85.69C272.802 85.69 273.842 85.3553 274.58 84.6858C275.34 84.0163 275.72 83.1571 275.72 82.1082C275.72 81.3048 275.418 80.6018 274.814 79.9993C274.233 79.3967 273.461 78.8946 272.5 78.4929C271.561 78.0689 270.521 77.656 269.381 77.2543C268.24 76.8303 267.088 76.3282 265.926 75.748C264.785 75.1678 263.734 74.4983 262.773 73.7395C261.834 72.9584 261.062 71.9207 260.458 70.6263C259.877 69.332 259.586 67.8368 259.586 66.1407C259.586 63.0833 260.738 60.5504 263.041 58.5419C265.367 56.5334 268.307 55.5292 271.863 55.5292C274.457 55.5292 276.894 56.0759 279.175 57.1694C281.456 58.263 283.256 59.6801 284.575 61.4208L278.739 66.6428C276.659 63.9872 274.389 62.6593 271.93 62.6593C270.655 62.6593 269.671 62.9383 268.978 63.4962C268.307 64.0541 267.972 64.824 267.972 65.806C267.972 66.587 268.262 67.2788 268.844 67.8814C269.448 68.4616 270.219 68.9637 271.158 69.3878C272.12 69.7895 273.171 70.2023 274.311 70.6263C275.474 71.028 276.626 71.519 277.766 72.0992C278.906 72.6571 279.946 73.3266 280.885 74.1077C281.847 74.8665 282.618 75.8819 283.2 77.1539C283.804 78.426 284.105 79.8989 284.105 81.5726C284.038 85.054 282.797 87.7989 280.382 89.8074C277.967 91.8159 275.038 92.8201 271.594 92.8201C265.937 92.8201 261.319 90.6889 257.741 86.4265Z" fill="#253472"/>
<path d="M290.076 82.3425C290.076 79.6645 291.071 77.3882 293.061 75.5137C295.074 73.6167 297.925 72.367 301.614 71.7645L312.079 69.9903V69.0865C312.079 67.2788 311.465 65.8394 310.235 64.7682C309.005 63.6747 307.395 63.128 305.405 63.128C303.705 63.128 302.185 63.485 300.843 64.1992C299.501 64.891 298.439 65.9064 297.656 67.2454L291.183 62.3915C292.748 60.2268 294.783 58.5419 297.287 57.3368C299.792 56.1317 302.587 55.5292 305.673 55.5292C310.503 55.5292 314.237 56.8012 316.876 59.3453C319.537 61.8671 320.867 65.1141 320.867 69.0865V91.4477H312.079V88.2341C310.961 89.6177 309.463 90.7224 307.585 91.5481C305.729 92.3961 303.795 92.8201 301.782 92.8201C298.271 92.8201 295.443 91.8829 293.296 90.0083C291.149 88.1337 290.076 85.5784 290.076 82.3425ZM298.73 81.9743C298.73 83.0901 299.166 84.0163 300.038 84.7527C300.932 85.4668 302.106 85.8239 303.56 85.8239C307.205 85.8239 310.045 84.206 312.079 80.9701V76.2166L303.895 77.656C300.452 78.214 298.73 79.6534 298.73 81.9743Z" fill="#253472"/>
<path d="M330.46 83.4807C329.074 80.6688 328.381 77.5668 328.381 74.1747C328.381 70.7825 329.074 67.6917 330.46 64.9021C331.847 62.0902 333.893 59.8251 336.599 58.1067C339.304 56.3884 342.424 55.5292 345.957 55.5292C350.25 55.5292 353.828 56.7789 356.69 59.2784V40.0303H365.478V91.4477H356.69V89.0375C353.806 91.5593 350.228 92.8201 345.957 92.8201C342.424 92.8201 339.304 91.961 336.599 90.2426C333.893 88.5242 331.847 86.2702 330.46 83.4807ZM340.154 66.6763C338.388 68.6178 337.504 71.1173 337.504 74.1747C337.504 77.232 338.388 79.7315 340.154 81.673C341.943 83.6146 344.291 84.5853 347.198 84.5853C351.201 84.5853 354.365 82.8781 356.69 79.4637V68.8856C354.342 65.4712 351.178 63.764 347.198 63.764C344.291 63.764 341.943 64.7348 340.154 66.6763Z" fill="#253472"/>
<path d="M373.461 74.1747C373.461 70.7379 374.143 67.6248 375.507 64.8352C376.871 62.0233 378.917 59.7693 381.646 58.0733C384.374 56.3772 387.571 55.5292 391.238 55.5292C396.001 55.5292 399.848 56.9798 402.777 59.8809C405.706 62.7597 407.171 66.4755 407.171 71.028C407.171 72.7464 406.992 74.3867 406.634 75.9488H382.383C382.652 78.783 383.714 81.0035 385.57 82.6103C387.426 84.1948 389.841 84.987 392.815 84.987C394.671 84.987 396.359 84.63 397.88 83.9158C399.4 83.1794 400.63 82.1751 401.569 80.9031L407.808 85.8239C406.176 88.0109 404.052 89.7293 401.435 90.979C398.819 92.2064 395.901 92.8201 392.681 92.8201C389.684 92.8201 386.956 92.3292 384.497 91.3473C382.037 90.343 380.013 88.9929 378.425 87.2968C376.838 85.5784 375.608 83.6034 374.736 81.3718C373.886 79.1178 373.461 76.7188 373.461 74.1747ZM382.954 69.3878H398.517C398.45 67.5578 397.768 66.0068 396.471 64.7348C395.174 63.4404 393.43 62.7932 391.238 62.7932C386.856 62.7932 384.094 64.9914 382.954 69.3878Z" fill="#253472"/>
<path d="M414.55 76.0827V56.9016H423.338V76.5179C423.338 79.062 423.975 81.0482 425.25 82.4764C426.547 83.8824 428.381 84.5853 430.751 84.5853C433.099 84.5853 434.91 83.8712 436.185 82.4429C437.482 81.0147 438.13 79.0397 438.13 76.5179V56.9016H446.918V76.0827C446.918 81.2602 445.476 85.3441 442.591 88.3345C439.729 91.3249 435.76 92.8201 430.684 92.8201C425.63 92.8201 421.672 91.3361 418.81 88.368C415.97 85.3776 414.55 81.2825 414.55 76.0827Z" fill="#253472"/>
<path d="M456.578 91.4477V56.9016H465.299V60.3161C467.96 57.5711 471.001 56.1987 474.423 56.1987C475.384 56.1987 476.39 56.3661 477.441 56.7008V65.806C476.144 65.4935 474.87 65.3373 473.618 65.3373C471.672 65.3373 469.984 65.7725 468.553 66.6428C467.144 67.5132 466.059 68.562 465.299 69.7895V91.4477H456.578Z" fill="#253472"/>
<path d="M126 133.63C126.574 133.767 127.1 133.835 127.579 133.835C129.109 133.835 130.298 133.439 131.146 132.646C131.993 131.854 132.417 130.487 132.417 128.546V101.075H136.353V128.382C136.353 134.341 133.585 137.321 128.05 137.321C127.175 137.321 126.492 137.266 126 137.157V133.63Z" fill="#253472"/>
<path d="M142.79 119.895C142.79 117.749 143.214 115.815 144.061 114.093C144.922 112.371 146.166 111.004 147.792 109.993C149.432 108.982 151.318 108.476 153.451 108.476C156.293 108.476 158.583 109.337 160.318 111.059C162.068 112.781 162.942 114.982 162.942 117.66C162.942 118.385 162.86 119.143 162.696 119.936H146.48V120.018C146.48 122.355 147.218 124.282 148.694 125.799C150.17 127.316 152.084 128.075 154.435 128.075C155.747 128.075 156.949 127.795 158.043 127.234C159.15 126.674 160.059 125.908 160.769 124.938L163.414 126.988C162.403 128.341 161.118 129.4 159.56 130.166C158.002 130.931 156.259 131.314 154.332 131.314C152.022 131.314 149.979 130.788 148.202 129.735C146.426 128.683 145.079 127.303 144.164 125.594C143.248 123.872 142.79 121.972 142.79 119.895ZM146.788 117.127H159.334C159.266 115.542 158.699 114.216 157.633 113.15C156.567 112.07 155.186 111.531 153.492 111.531C151.756 111.531 150.307 112.009 149.145 112.966C147.997 113.922 147.211 115.31 146.788 117.127Z" fill="#253472"/>
<path d="M180.307 130.473V109.317H183.874V111.613C185.691 109.522 187.905 108.476 190.516 108.476C192.101 108.476 193.495 108.838 194.698 109.563C195.914 110.287 196.844 111.339 197.486 112.72C199.468 109.891 201.955 108.476 204.948 108.476C207.286 108.476 209.178 109.241 210.627 110.772C212.076 112.289 212.8 114.449 212.8 117.25V130.473H209.233V117.373C209.233 115.638 208.782 114.285 207.88 113.314C206.992 112.33 205.782 111.838 204.251 111.838C201.819 111.838 199.83 113.178 198.286 115.856C198.34 116.485 198.368 116.95 198.368 117.25V130.473H194.76V117.373C194.76 115.624 194.315 114.264 193.427 113.294C192.552 112.323 191.343 111.838 189.798 111.838C187.325 111.838 185.35 113.164 183.874 115.815V130.473H180.307Z" fill="#253472"/>
<path d="M218.069 112.33L221.636 101.075H225.716L221.39 112.33H218.069Z" fill="#253472"/>
<path d="M227.335 119.895C227.335 117.749 227.759 115.815 228.606 114.093C229.467 112.371 230.711 111.004 232.337 109.993C233.978 108.982 235.864 108.476 237.996 108.476C240.838 108.476 243.128 109.337 244.863 111.059C246.613 112.781 247.488 114.982 247.488 117.66C247.488 118.385 247.406 119.143 247.242 119.936H231.025V120.018C231.025 122.355 231.763 124.282 233.24 125.799C234.716 127.316 236.629 128.075 238.98 128.075C240.292 128.075 241.494 127.795 242.588 127.234C243.695 126.674 244.604 125.908 245.314 124.938L247.959 126.988C246.948 128.341 245.663 129.4 244.105 130.166C242.547 130.931 240.804 131.314 238.877 131.314C236.567 131.314 234.524 130.788 232.747 129.735C230.971 128.683 229.625 127.303 228.709 125.594C227.793 123.872 227.335 121.972 227.335 119.895ZM231.333 117.127H243.879C243.811 115.542 243.244 114.216 242.178 113.15C241.112 112.07 239.731 111.531 238.037 111.531C236.301 111.531 234.852 112.009 233.691 112.966C232.542 113.922 231.757 115.31 231.333 117.127Z" fill="#253472"/>
<path d="M253.535 130.473V109.317H257.102V111.715C259.07 109.556 261.421 108.476 264.155 108.476C266.601 108.476 268.59 109.282 270.12 110.895C271.665 112.494 272.437 114.749 272.437 117.66V130.473H268.829V117.804C268.829 115.931 268.344 114.469 267.373 113.417C266.417 112.364 265.111 111.838 263.458 111.838C260.82 111.838 258.701 113.164 257.102 115.815V130.473H253.535Z" fill="#253472"/>
<path d="M277.193 134.286C277.193 132.277 278.239 130.501 280.33 128.956C279.346 128.177 278.854 127.173 278.854 125.943C278.854 124.262 279.694 122.888 281.375 121.822C280.446 121.125 279.722 120.264 279.202 119.239C278.697 118.214 278.444 117.114 278.444 115.938C278.444 113.834 279.195 112.057 280.699 110.608C282.216 109.159 284.204 108.435 286.664 108.435C288.182 108.435 289.541 108.729 290.744 109.317H298.596V112.412H294.024C294.612 113.451 294.906 114.626 294.906 115.938C294.906 118.029 294.147 119.799 292.63 121.248C291.127 122.697 289.138 123.421 286.664 123.421C285.735 123.421 284.758 123.278 283.733 122.991C282.804 123.66 282.339 124.391 282.339 125.184C282.339 126.195 282.926 126.701 284.102 126.701H290.15C292.842 126.701 294.878 127.296 296.259 128.485C297.653 129.66 298.35 131.232 298.35 133.2C298.35 135.482 297.352 137.348 295.357 138.797C293.375 140.245 290.771 140.97 287.546 140.97C284.375 140.97 281.854 140.375 279.981 139.186C278.122 138.011 277.193 136.378 277.193 134.286ZM280.678 133.876C280.678 135.161 281.286 136.166 282.503 136.89C283.733 137.628 285.4 137.997 287.505 137.997C289.733 137.997 291.503 137.58 292.815 136.747C294.127 135.927 294.783 134.826 294.783 133.446C294.783 131.041 293.143 129.838 289.863 129.838H283.446C281.601 130.945 280.678 132.291 280.678 133.876ZM283.118 112.576C282.271 113.465 281.847 114.585 281.847 115.938C281.847 117.291 282.271 118.412 283.118 119.3C283.979 120.175 285.175 120.612 286.706 120.612C288.195 120.612 289.371 120.168 290.232 119.28C291.106 118.378 291.544 117.264 291.544 115.938C291.544 114.585 291.106 113.465 290.232 112.576C289.371 111.688 288.195 111.244 286.706 111.244C285.175 111.244 283.979 111.688 283.118 112.576Z" fill="#253472"/>
<path d="M300.749 125.266C300.749 123.612 301.35 122.232 302.553 121.125C303.755 120.018 305.477 119.287 307.719 118.931L314.812 117.742V116.287C314.812 114.852 314.34 113.724 313.397 112.904C312.468 112.07 311.245 111.654 309.728 111.654C308.498 111.654 307.384 111.913 306.386 112.433C305.402 112.952 304.603 113.676 303.988 114.606L301.302 112.556C302.245 111.271 303.441 110.273 304.89 109.563C306.352 108.838 307.992 108.476 309.81 108.476C312.461 108.476 314.552 109.194 316.083 110.629C317.614 112.05 318.379 113.936 318.379 116.287V130.473H314.812V127.788C314.019 128.895 312.994 129.763 311.737 130.391C310.493 131.006 309.154 131.314 307.719 131.314C305.628 131.314 303.94 130.767 302.655 129.674C301.384 128.567 300.749 127.098 300.749 125.266ZM304.316 125.143C304.316 126.059 304.678 126.824 305.402 127.439C306.14 128.041 307.111 128.341 308.313 128.341C311.06 128.341 313.227 127.036 314.812 124.426V120.387L308.559 121.494C305.73 121.945 304.316 123.161 304.316 125.143Z" fill="#253472"/>
<path d="M323.197 134.286C323.197 132.277 324.242 130.501 326.333 128.956C325.349 128.177 324.857 127.173 324.857 125.943C324.857 124.262 325.698 122.888 327.379 121.822C326.45 121.125 325.725 120.264 325.206 119.239C324.7 118.214 324.447 117.114 324.447 115.938C324.447 113.834 325.199 112.057 326.702 110.608C328.22 109.159 330.208 108.435 332.668 108.435C334.185 108.435 335.545 108.729 336.748 109.317H344.6V112.412H340.028C340.616 113.451 340.909 114.626 340.909 115.938C340.909 118.029 340.151 119.799 338.634 121.248C337.131 122.697 335.142 123.421 332.668 123.421C331.739 123.421 330.762 123.278 329.737 122.991C328.807 123.66 328.343 124.391 328.343 125.184C328.343 126.195 328.93 126.701 330.106 126.701H336.153C338.846 126.701 340.882 127.296 342.263 128.485C343.657 129.66 344.354 131.232 344.354 133.2C344.354 135.482 343.356 137.348 341.361 138.797C339.379 140.245 336.775 140.97 333.55 140.97C330.379 140.97 327.857 140.375 325.985 139.186C324.126 138.011 323.197 136.378 323.197 134.286ZM326.682 133.876C326.682 135.161 327.29 136.166 328.507 136.89C329.737 137.628 331.404 137.997 333.509 137.997C335.736 137.997 337.506 137.58 338.818 136.747C340.13 135.927 340.786 134.826 340.786 133.446C340.786 131.041 339.146 129.838 335.866 129.838H329.45C327.605 130.945 326.682 132.291 326.682 133.876ZM329.122 112.576C328.274 113.465 327.851 114.585 327.851 115.938C327.851 117.291 328.274 118.412 329.122 119.3C329.983 120.175 331.178 120.612 332.709 120.612C334.199 120.612 335.374 120.168 336.235 119.28C337.11 118.378 337.547 117.264 337.547 115.938C337.547 114.585 337.11 113.465 336.235 112.576C335.374 111.688 334.199 111.244 332.709 111.244C331.178 111.244 329.983 111.688 329.122 112.576Z" fill="#253472"/>
<path d="M346.199 119.895C346.199 117.749 346.622 115.815 347.47 114.093C348.331 112.371 349.574 111.004 351.201 109.993C352.841 108.982 354.727 108.476 356.859 108.476C359.702 108.476 361.991 109.337 363.727 111.059C365.476 112.781 366.351 114.982 366.351 117.66C366.351 118.385 366.269 119.143 366.105 119.936H349.889V120.018C349.889 122.355 350.627 124.282 352.103 125.799C353.579 127.316 355.492 128.075 357.843 128.075C359.155 128.075 360.358 127.795 361.451 127.234C362.558 126.674 363.467 125.908 364.178 124.938L366.822 126.988C365.811 128.341 364.526 129.4 362.968 130.166C361.41 130.931 359.668 131.314 357.741 131.314C355.431 131.314 353.388 130.788 351.611 129.735C349.834 128.683 348.488 127.303 347.572 125.594C346.657 123.872 346.199 121.972 346.199 119.895ZM350.196 117.127H362.743C362.674 115.542 362.107 114.216 361.041 113.15C359.975 112.07 358.595 111.531 356.9 111.531C355.164 111.531 353.716 112.009 352.554 112.966C351.406 113.922 350.62 115.31 350.196 117.127Z" fill="#253472"/>
<path d="M379.881 121.453V118.009H391.218V121.453H379.881Z" fill="#253472"/>
<path d="M401.243 133.63C401.817 133.767 402.343 133.835 402.822 133.835C404.353 133.835 405.542 133.439 406.389 132.646C407.236 131.854 407.66 130.487 407.66 128.546V101.075H411.596V128.382C411.596 134.341 408.829 137.321 403.293 137.321C402.419 137.321 401.735 137.266 401.243 137.157V133.63Z" fill="#253472"/>
<path d="M418.033 119.895C418.033 117.749 418.457 115.815 419.304 114.093C420.165 112.371 421.409 111.004 423.036 109.993C424.676 108.982 426.562 108.476 428.694 108.476C431.537 108.476 433.826 109.337 435.562 111.059C437.311 112.781 438.186 114.982 438.186 117.66C438.186 118.385 438.104 119.143 437.94 119.936H421.724V120.018C421.724 122.355 422.462 124.282 423.938 125.799C425.414 127.316 427.327 128.075 429.678 128.075C430.99 128.075 432.193 127.795 433.286 127.234C434.393 126.674 435.302 125.908 436.013 124.938L438.657 126.988C437.646 128.341 436.361 129.4 434.803 130.166C433.245 130.931 431.502 131.314 429.575 131.314C427.266 131.314 425.222 130.788 423.446 129.735C421.669 128.683 420.323 127.303 419.407 125.594C418.491 123.872 418.033 121.972 418.033 119.895ZM422.031 117.127H434.577C434.509 115.542 433.942 114.216 432.876 113.15C431.81 112.07 430.43 111.531 428.735 111.531C426.999 111.531 425.55 112.009 424.389 112.966C423.241 113.922 422.455 115.31 422.031 117.127Z" fill="#253472"/>
<path d="M453.295 127.583L455.816 125.389C457.388 127.357 459.178 128.341 461.187 128.341C462.336 128.341 463.238 128.034 463.894 127.419C464.55 126.804 464.878 126.018 464.878 125.061C464.878 124.419 464.686 123.858 464.304 123.38C463.921 122.902 463.422 122.505 462.807 122.191C462.206 121.877 461.536 121.576 460.798 121.289C460.06 120.988 459.322 120.66 458.584 120.305C457.846 119.936 457.169 119.519 456.554 119.054C455.953 118.576 455.461 117.947 455.078 117.168C454.696 116.376 454.504 115.467 454.504 114.442C454.504 112.733 455.14 111.312 456.411 110.178C457.696 109.043 459.329 108.476 461.31 108.476C462.828 108.476 464.208 108.79 465.452 109.419C466.709 110.048 467.72 110.895 468.486 111.961L466.005 114.093C464.775 112.33 463.224 111.449 461.352 111.449C460.285 111.449 459.459 111.715 458.871 112.248C458.283 112.781 457.989 113.485 457.989 114.36C457.989 115.016 458.181 115.59 458.563 116.082C458.946 116.56 459.438 116.963 460.039 117.291C460.654 117.606 461.331 117.913 462.069 118.214C462.807 118.501 463.545 118.829 464.283 119.198C465.021 119.553 465.691 119.963 466.292 120.428C466.907 120.879 467.406 121.487 467.789 122.253C468.171 123.018 468.363 123.899 468.363 124.897C468.349 126.838 467.659 128.396 466.292 129.571C464.939 130.733 463.251 131.314 461.228 131.314C457.935 131.314 455.29 130.07 453.295 127.583Z" fill="#253472"/>
<path d="M472.914 125.266C472.914 123.612 473.515 122.232 474.718 121.125C475.921 120.018 477.643 119.287 479.884 118.931L486.977 117.742V116.287C486.977 114.852 486.506 113.724 485.563 112.904C484.634 112.07 483.41 111.654 481.893 111.654C480.663 111.654 479.549 111.913 478.552 112.433C477.568 112.952 476.768 113.676 476.153 114.606L473.467 112.556C474.41 111.271 475.606 110.273 477.055 109.563C478.517 108.838 480.158 108.476 481.975 108.476C484.627 108.476 486.718 109.194 488.248 110.629C489.779 112.05 490.545 113.936 490.545 116.287V130.473H486.977V127.788C486.185 128.895 485.16 129.763 483.902 130.391C482.659 131.006 481.319 131.314 479.884 131.314C477.793 131.314 476.105 130.767 474.82 129.674C473.549 128.567 472.914 127.098 472.914 125.266ZM476.481 125.143C476.481 126.059 476.843 126.824 477.568 127.439C478.306 128.041 479.276 128.341 480.479 128.341C483.226 128.341 485.392 127.036 486.977 124.426V120.387L480.725 121.494C477.896 121.945 476.481 123.161 476.481 125.143Z" fill="#253472"/>
<path d="M497.084 101.301C497.084 100.617 497.323 100.037 497.802 99.5582C498.294 99.0662 498.888 98.8201 499.585 98.8201C500.282 98.8201 500.87 99.0662 501.348 99.5582C501.827 100.037 502.066 100.617 502.066 101.301C502.066 101.998 501.827 102.592 501.348 103.084C500.87 103.576 500.282 103.822 499.585 103.822C498.888 103.822 498.294 103.576 497.802 103.084C497.323 102.592 497.084 101.998 497.084 101.301ZM497.781 130.473V109.317H501.348V130.473H497.781Z" fill="#253472"/>
<path d="M506.474 127.583L508.995 125.389C510.567 127.357 512.357 128.341 514.366 128.341C515.514 128.341 516.417 128.034 517.073 127.419C517.729 126.804 518.057 126.018 518.057 125.061C518.057 124.419 517.865 123.858 517.483 123.38C517.1 122.902 516.601 122.505 515.986 122.191C515.385 121.877 514.715 121.576 513.977 121.289C513.239 120.988 512.501 120.66 511.763 120.305C511.025 119.936 510.348 119.519 509.733 119.054C509.132 118.576 508.64 117.947 508.257 117.168C507.875 116.376 507.683 115.467 507.683 114.442C507.683 112.733 508.319 111.312 509.59 110.178C510.875 109.043 512.508 108.476 514.489 108.476C516.007 108.476 517.387 108.79 518.631 109.419C519.888 110.048 520.899 110.895 521.665 111.961L519.184 114.093C517.954 112.33 516.403 111.449 514.53 111.449C513.464 111.449 512.638 111.715 512.05 112.248C511.462 112.781 511.168 113.485 511.168 114.36C511.168 115.016 511.36 115.59 511.742 116.082C512.125 116.56 512.617 116.963 513.218 117.291C513.833 117.606 514.51 117.913 515.248 118.214C515.986 118.501 516.724 118.829 517.462 119.198C518.2 119.553 518.87 119.963 519.471 120.428C520.086 120.879 520.585 121.487 520.968 122.253C521.35 123.018 521.542 123.899 521.542 124.897C521.528 126.838 520.838 128.396 519.471 129.571C518.118 130.733 516.43 131.314 514.407 131.314C511.114 131.314 508.469 130.07 506.474 127.583Z" fill="#253472"/>
<path d="M535.892 112.597V109.317H539.89V106.713C539.89 104.431 540.573 102.572 541.94 101.137C543.32 99.7017 545.138 98.9841 547.393 98.9841C549.635 98.9841 551.459 99.6675 552.867 101.034L550.632 103.638C549.785 102.695 548.719 102.223 547.434 102.223C546.259 102.223 545.309 102.62 544.585 103.412C543.86 104.205 543.498 105.278 543.498 106.631V109.317H550.837V112.597H543.498V130.473H539.89V112.597H535.892Z" fill="#253472"/>
<path d="M552.58 125.266C552.58 123.612 553.181 122.232 554.384 121.125C555.587 120.018 557.309 119.287 559.55 118.931L566.643 117.742V116.287C566.643 114.852 566.172 113.724 565.229 112.904C564.3 112.07 563.076 111.654 561.559 111.654C560.329 111.654 559.215 111.913 558.218 112.433C557.234 112.952 556.434 113.676 555.819 114.606L553.133 112.556C554.076 111.271 555.272 110.273 556.721 109.563C558.183 108.838 559.823 108.476 561.641 108.476C564.293 108.476 566.384 109.194 567.914 110.629C569.445 112.05 570.211 113.936 570.211 116.287V130.473H566.643V127.788C565.851 128.895 564.826 129.763 563.568 130.391C562.325 131.006 560.985 131.314 559.55 131.314C557.459 131.314 555.771 130.767 554.486 129.674C553.215 128.567 552.58 127.098 552.58 125.266ZM556.147 125.143C556.147 126.059 556.509 126.824 557.234 127.439C557.972 128.041 558.942 128.341 560.145 128.341C562.892 128.341 565.058 127.036 566.643 124.426V120.387L560.391 121.494C557.562 121.945 556.147 123.161 556.147 125.143Z" fill="#253472"/>
<path d="M576.75 101.301C576.75 100.617 576.989 100.037 577.468 99.5582C577.96 99.0662 578.554 98.8201 579.251 98.8201C579.948 98.8201 580.536 99.0662 581.014 99.5582C581.493 100.037 581.732 100.617 581.732 101.301C581.732 101.998 581.493 102.592 581.014 103.084C580.536 103.576 579.948 103.822 579.251 103.822C578.554 103.822 577.96 103.576 577.468 103.084C576.989 102.592 576.75 101.998 576.75 101.301ZM577.447 130.473V109.317H581.014V130.473H577.447Z" fill="#253472"/>
<path d="M588.559 130.473V109.317H592.126V111.961C593.862 109.911 595.919 108.886 598.297 108.886C598.953 108.886 599.561 108.975 600.121 109.153V112.843C599.383 112.651 598.679 112.556 598.01 112.556C595.522 112.556 593.561 113.745 592.126 116.123V130.473H588.559Z" fill="#253472"/>
<path d="M602.376 119.895C602.376 117.749 602.8 115.815 603.647 114.093C604.508 112.371 605.752 111.004 607.378 109.993C609.018 108.982 610.905 108.476 613.037 108.476C615.879 108.476 618.169 109.337 619.904 111.059C621.654 112.781 622.528 114.982 622.528 117.66C622.528 118.385 622.446 119.143 622.282 119.936H606.066V120.018C606.066 122.355 606.804 124.282 608.28 125.799C609.757 127.316 611.67 128.075 614.021 128.075C615.333 128.075 616.535 127.795 617.629 127.234C618.736 126.674 619.645 125.908 620.355 124.938L623 126.988C621.989 128.341 620.704 129.4 619.146 130.166C617.588 130.931 615.845 131.314 613.918 131.314C611.608 131.314 609.565 130.788 607.788 129.735C606.012 128.683 604.665 127.303 603.75 125.594C602.834 123.872 602.376 121.972 602.376 119.895ZM606.374 117.127H618.92C618.852 115.542 618.285 114.216 617.219 113.15C616.153 112.07 614.772 111.531 613.078 111.531C611.342 111.531 609.893 112.009 608.731 112.966C607.583 113.922 606.798 115.31 606.374 117.127Z" fill="#253472"/>
</svg>
