<svg width="729" height="161" viewBox="0 0 729 161" fill="none" xmlns="http://www.w3.org/2000/svg">
<path d="M488.927 81.4477V33.4448H503.79C509.152 33.4448 513.371 34.728 516.448 37.2944C519.548 39.8385 521.097 43.331 521.097 47.772C521.097 50.6285 520.419 53.1168 519.061 55.2369C517.726 57.357 515.815 59.0084 513.326 60.1912L528.597 81.4477H516.788L503.858 62.0323H498.802V81.4477H488.927ZM498.802 53.764H504.367C506.449 53.764 508.066 53.2396 509.22 52.1907C510.374 51.1195 510.951 49.602 510.951 47.6381C510.951 45.8081 510.374 44.3687 509.22 43.3198C508.066 42.271 506.449 41.7465 504.367 41.7465H498.802V53.764Z" fill="#E10E17"/>
<path d="M530.905 64.1747C530.905 60.7379 531.595 57.6248 532.975 54.8352C534.355 52.0233 536.425 49.7693 539.185 48.0733C541.945 46.3772 545.18 45.5292 548.89 45.5292C553.709 45.5292 557.6 46.9798 560.564 49.8809C563.527 52.7597 565.009 56.4755 565.009 61.028C565.009 62.7464 564.828 64.3867 564.466 65.9488H539.931C540.203 68.783 541.277 71.0035 543.155 72.6103C545.033 74.1948 547.476 74.987 550.485 74.987C552.363 74.987 554.071 74.63 555.609 73.9158C557.148 73.1794 558.392 72.1751 559.342 70.9031L565.654 75.8239C564.003 78.0109 561.853 79.7293 559.206 80.979C556.56 82.2064 553.607 82.8201 550.349 82.8201C547.318 82.8201 544.558 82.3292 542.069 81.3473C539.581 80.343 537.533 78.9929 535.927 77.2968C534.321 75.5784 533.076 73.6034 532.194 71.3718C531.334 69.1178 530.905 66.7188 530.905 64.1747ZM540.508 59.3878H556.254C556.186 57.5578 555.496 56.0068 554.184 54.7348C552.872 53.4404 551.107 52.7932 548.89 52.7932C544.456 52.7932 541.662 54.9914 540.508 59.3878ZM545.293 41.4118L552.521 30.0303H562.091L553.777 41.4118H545.293Z" fill="#E10E17"/>
<path d="M573.663 81.4477V46.9016H582.486V49.6466C585.359 46.9016 588.809 45.5292 592.836 45.5292C596.795 45.5292 600.053 46.8682 602.609 49.5462C605.166 52.2018 606.444 55.9845 606.444 60.8941V81.4477H597.485V61.2289C597.485 58.9303 596.874 57.1115 595.653 55.7725C594.431 54.4335 592.746 53.764 590.596 53.764C587.225 53.764 584.522 55.4712 582.486 58.8856V81.4477H573.663Z" fill="#E10E17"/>
<path d="M616.353 73.5811C614.769 70.7469 613.978 67.6114 613.978 64.1747C613.978 60.7379 614.769 57.6024 616.353 54.7682C617.959 51.934 620.233 49.6912 623.174 48.0398C626.115 46.3661 629.441 45.5292 633.151 45.5292C636.861 45.5292 640.187 46.3661 643.128 48.0398C646.069 49.6912 648.331 51.934 649.915 54.7682C651.521 57.6024 652.324 60.7379 652.324 64.1747C652.324 67.6114 651.521 70.7469 649.915 73.5811C648.331 76.4153 646.069 78.6693 643.128 80.343C640.187 81.9944 636.861 82.8201 633.151 82.8201C629.441 82.8201 626.115 81.9944 623.174 80.343C620.233 78.6693 617.959 76.4153 616.353 73.5811ZM626.024 56.7098C624.102 58.6736 623.14 61.1619 623.14 64.1747C623.14 67.1874 624.102 69.6757 626.024 71.6395C627.947 73.6034 630.368 74.5853 633.287 74.5853C636.115 74.5853 638.467 73.5923 640.345 71.6061C642.223 69.6199 643.162 67.1428 643.162 64.1747C643.162 61.1619 642.223 58.6736 640.345 56.7098C638.467 54.7459 636.115 53.764 633.287 53.764C630.368 53.764 627.947 54.7459 626.024 56.7098Z" fill="#E10E17"/>
<path d="M654.971 46.9016H664.439L673.534 71.5726L682.56 46.9016H692.096L679.302 81.4477H667.697L654.971 46.9016Z" fill="#E10E17"/>
<path d="M696.745 53.1949L702.989 33.4448H713L704.957 53.1949H696.745Z" fill="#E10E17"/>
<path d="M16 81.4477L34.1797 33.4448H46.9592L65.1725 81.4477H54.8081L50.2128 68.9616H30.9597L26.3645 81.4477H16ZM33.9785 60.6598H47.194L40.5863 42.6503L33.9785 60.6598Z" fill="#253472"/>
<path d="M73.5245 81.4477V46.9016H82.2454V49.5127C84.9735 46.857 88.1488 45.5292 91.7713 45.5292C94.0745 45.5292 96.1653 46.0425 98.0437 47.069C99.9444 48.0956 101.454 49.5908 102.572 51.5547C104.07 49.7024 105.714 48.2406 107.502 47.1694C109.291 46.0759 111.427 45.5292 113.909 45.5292C117.643 45.5292 120.707 46.8012 123.1 49.3453C125.492 51.8894 126.688 55.5047 126.688 60.1912V81.4477H117.9V60.5259C117.9 58.4282 117.353 56.7767 116.257 55.5716C115.161 54.3665 113.641 53.764 111.695 53.764C108.878 53.764 106.474 55.4043 104.484 58.6848C104.528 58.9972 104.551 59.4993 104.551 60.1912V81.4477H95.6957V60.5259C95.6957 58.4058 95.159 56.7544 94.0857 55.5716C93.0347 54.3665 91.5365 53.764 89.5911 53.764C88.6519 53.764 87.7798 53.9202 86.9748 54.2326C86.1698 54.5228 85.4654 54.9579 84.8617 55.5382C84.2803 56.0961 83.7995 56.6205 83.4194 57.1115C83.0392 57.6024 82.6479 58.1938 82.2454 58.8856V81.4477H73.5245Z" fill="#253472"/>
<path d="M136.65 81.4477V30.0303H145.371V49.3788C148.211 46.8124 151.8 45.5292 156.138 45.5292C158.822 45.5292 161.281 46.0313 163.518 47.0355C165.754 48.0175 167.61 49.3676 169.086 51.086C170.561 52.7821 171.702 54.7571 172.507 57.011C173.334 59.265 173.748 61.6529 173.748 64.1747C173.748 66.6964 173.334 69.0843 172.507 71.3383C171.702 73.5923 170.561 75.5784 169.086 77.2968C167.61 78.9929 165.754 80.343 163.518 81.3473C161.281 82.3292 158.822 82.8201 156.138 82.8201C151.8 82.8201 148.211 81.5369 145.371 78.9705V81.4477H136.65ZM145.371 69.4637L145.438 69.3967C147.809 72.8558 150.962 74.5853 154.897 74.5853C157.827 74.5853 160.186 73.6146 161.975 71.673C163.764 69.7092 164.658 67.2097 164.658 64.1747C164.658 61.1396 163.764 58.6513 161.975 56.7098C160.186 54.7459 157.827 53.764 154.897 53.764C150.962 53.764 147.809 55.4935 145.438 58.9526L145.371 58.8856V69.4637Z" fill="#253472"/>
<path d="M179.048 72.3425C179.048 69.6645 180.043 67.3882 182.033 65.5137C184.045 63.6167 186.896 62.367 190.586 61.7645L201.051 59.9903V59.0865C201.051 57.2788 200.436 55.8394 199.206 54.7682C197.976 53.6747 196.366 53.128 194.376 53.128C192.677 53.128 191.156 53.485 189.814 54.1992C188.473 54.891 187.411 55.9064 186.628 57.2454L180.154 52.3915C181.72 50.2268 183.755 48.5419 186.259 47.3368C188.764 46.1317 191.559 45.5292 194.645 45.5292C199.475 45.5292 203.209 46.8012 205.848 49.3453C208.509 51.8671 209.839 55.1141 209.839 59.0865V81.4477H201.051V78.2341C199.933 79.6177 198.435 80.7224 196.556 81.5481C194.7 82.3961 192.766 82.8201 190.754 82.8201C187.243 82.8201 184.414 81.8829 182.268 80.0083C180.121 78.1337 179.048 75.5784 179.048 72.3425ZM187.701 71.9743C187.701 73.0901 188.137 74.0163 189.009 74.7527C189.904 75.4668 191.078 75.8239 192.531 75.8239C196.176 75.8239 199.016 74.206 201.051 70.9701V66.2166L192.867 67.656C189.423 68.214 187.701 69.6534 187.701 71.9743Z" fill="#253472"/>
<path d="M216.816 76.4265L222.585 71.104C225 74.1613 227.65 75.69 230.534 75.69C231.876 75.69 232.916 75.3553 233.654 74.6858C234.414 74.0163 234.794 73.1571 234.794 72.1082C234.794 71.3048 234.492 70.6018 233.889 69.9993C233.307 69.3967 232.536 68.8946 231.574 68.4929C230.635 68.0689 229.595 67.656 228.455 67.2543C227.314 66.8303 226.163 66.3282 225 65.748C223.86 65.1678 222.809 64.4983 221.847 63.7395C220.908 62.9584 220.136 61.9207 219.533 60.6263C218.951 59.332 218.661 57.8368 218.661 56.1407C218.661 53.0833 219.812 50.5504 222.115 48.5419C224.441 46.5334 227.381 45.5292 230.937 45.5292C233.531 45.5292 235.968 46.0759 238.249 47.1694C240.53 48.263 242.33 49.6801 243.649 51.4208L237.813 56.6428C235.733 53.9872 233.464 52.6593 231.004 52.6593C229.729 52.6593 228.746 52.9383 228.052 53.4962C227.381 54.0541 227.046 54.824 227.046 55.806C227.046 56.587 227.337 57.2788 227.918 57.8814C228.522 58.4616 229.293 58.9637 230.233 59.3878C231.194 59.7895 232.245 60.2023 233.385 60.6263C234.548 61.028 235.7 61.519 236.84 62.0992C237.981 62.6571 239.021 63.3266 239.96 64.1077C240.921 64.8665 241.693 65.8819 242.274 67.1539C242.878 68.426 243.18 69.8989 243.18 71.5726C243.113 75.054 241.872 77.7989 239.457 79.8074C237.042 81.8159 234.112 82.8201 230.669 82.8201C225.011 82.8201 220.394 80.6889 216.816 76.4265Z" fill="#253472"/>
<path d="M247.741 76.4265L253.511 71.104C255.926 74.1613 258.576 75.69 261.46 75.69C262.802 75.69 263.842 75.3553 264.58 74.6858C265.34 74.0163 265.72 73.1571 265.72 72.1082C265.72 71.3048 265.418 70.6018 264.814 69.9993C264.233 69.3967 263.461 68.8946 262.5 68.4929C261.561 68.0689 260.521 67.656 259.381 67.2543C258.24 66.8303 257.088 66.3282 255.926 65.748C254.785 65.1678 253.734 64.4983 252.773 63.7395C251.834 62.9584 251.062 61.9207 250.458 60.6263C249.877 59.332 249.586 57.8368 249.586 56.1407C249.586 53.0833 250.738 50.5504 253.041 48.5419C255.367 46.5334 258.307 45.5292 261.863 45.5292C264.457 45.5292 266.894 46.0759 269.175 47.1694C271.456 48.263 273.256 49.6801 274.575 51.4208L268.739 56.6428C266.659 53.9872 264.389 52.6593 261.93 52.6593C260.655 52.6593 259.671 52.9383 258.978 53.4962C258.307 54.0541 257.972 54.824 257.972 55.806C257.972 56.587 258.262 57.2788 258.844 57.8814C259.448 58.4616 260.219 58.9637 261.158 59.3878C262.12 59.7895 263.171 60.2023 264.311 60.6263C265.474 61.028 266.626 61.519 267.766 62.0992C268.906 62.6571 269.946 63.3266 270.885 64.1077C271.847 64.8665 272.618 65.8819 273.2 67.1539C273.804 68.426 274.105 69.8989 274.105 71.5726C274.038 75.054 272.797 77.7989 270.382 79.8074C267.967 81.8159 265.038 82.8201 261.594 82.8201C255.937 82.8201 251.319 80.6889 247.741 76.4265Z" fill="#253472"/>
<path d="M280.076 72.3425C280.076 69.6645 281.071 67.3882 283.061 65.5137C285.074 63.6167 287.925 62.367 291.614 61.7645L302.079 59.9903V59.0865C302.079 57.2788 301.465 55.8394 300.235 54.7682C299.005 53.6747 297.395 53.128 295.405 53.128C293.705 53.128 292.185 53.485 290.843 54.1992C289.501 54.891 288.439 55.9064 287.656 57.2454L281.183 52.3915C282.748 50.2268 284.783 48.5419 287.287 47.3368C289.792 46.1317 292.587 45.5292 295.673 45.5292C300.503 45.5292 304.237 46.8012 306.876 49.3453C309.537 51.8671 310.867 55.1141 310.867 59.0865V81.4477H302.079V78.2341C300.961 79.6177 299.463 80.7224 297.585 81.5481C295.729 82.3961 293.795 82.8201 291.782 82.8201C288.271 82.8201 285.443 81.8829 283.296 80.0083C281.149 78.1337 280.076 75.5784 280.076 72.3425ZM288.73 71.9743C288.73 73.0901 289.166 74.0163 290.038 74.7527C290.932 75.4668 292.106 75.8239 293.56 75.8239C297.205 75.8239 300.045 74.206 302.079 70.9701V66.2166L293.895 67.656C290.452 68.214 288.73 69.6534 288.73 71.9743Z" fill="#253472"/>
<path d="M320.46 73.4807C319.074 70.6688 318.381 67.5668 318.381 64.1747C318.381 60.7825 319.074 57.6917 320.46 54.9021C321.847 52.0902 323.893 49.8251 326.599 48.1067C329.304 46.3884 332.424 45.5292 335.957 45.5292C340.25 45.5292 343.828 46.7789 346.69 49.2784V30.0303H355.478V81.4477H346.69V79.0375C343.806 81.5593 340.228 82.8201 335.957 82.8201C332.424 82.8201 329.304 81.961 326.599 80.2426C323.893 78.5242 321.847 76.2702 320.46 73.4807ZM330.154 56.6763C328.388 58.6178 327.504 61.1173 327.504 64.1747C327.504 67.232 328.388 69.7315 330.154 71.673C331.943 73.6146 334.291 74.5853 337.198 74.5853C341.201 74.5853 344.365 72.8781 346.69 69.4637V58.8856C344.342 55.4712 341.178 53.764 337.198 53.764C334.291 53.764 331.943 54.7348 330.154 56.6763Z" fill="#253472"/>
<path d="M363.461 64.1747C363.461 60.7379 364.143 57.6248 365.507 54.8352C366.871 52.0233 368.917 49.7693 371.646 48.0733C374.374 46.3772 377.571 45.5292 381.238 45.5292C386.001 45.5292 389.848 46.9798 392.777 49.8809C395.706 52.7597 397.171 56.4755 397.171 61.028C397.171 62.7464 396.992 64.3867 396.634 65.9488H372.383C372.652 68.783 373.714 71.0035 375.57 72.6103C377.426 74.1948 379.841 74.987 382.815 74.987C384.671 74.987 386.359 74.63 387.88 73.9158C389.4 73.1794 390.63 72.1751 391.569 70.9031L397.808 75.8239C396.176 78.0109 394.052 79.7293 391.435 80.979C388.819 82.2064 385.901 82.8201 382.681 82.8201C379.684 82.8201 376.956 82.3292 374.497 81.3473C372.037 80.343 370.013 78.9929 368.425 77.2968C366.838 75.5784 365.608 73.6034 364.736 71.3718C363.886 69.1178 363.461 66.7188 363.461 64.1747ZM372.954 59.3878H388.517C388.45 57.5578 387.768 56.0068 386.471 54.7348C385.174 53.4404 383.43 52.7932 381.238 52.7932C376.856 52.7932 374.094 54.9914 372.954 59.3878Z" fill="#253472"/>
<path d="M404.55 66.0827V46.9016H413.338V66.5179C413.338 69.062 413.975 71.0482 415.25 72.4764C416.547 73.8824 418.381 74.5853 420.751 74.5853C423.099 74.5853 424.91 73.8712 426.185 72.4429C427.482 71.0147 428.13 69.0397 428.13 66.5179V46.9016H436.918V66.0827C436.918 71.2602 435.476 75.3441 432.591 78.3345C429.729 81.3249 425.76 82.8201 420.684 82.8201C415.63 82.8201 411.672 81.3361 408.81 78.368C405.97 75.3776 404.55 71.2825 404.55 66.0827Z" fill="#253472"/>
<path d="M446.578 81.4477V46.9016H455.299V50.3161C457.96 47.5711 461.001 46.1987 464.423 46.1987C465.384 46.1987 466.39 46.3661 467.441 46.7008V55.806C466.144 55.4935 464.87 55.3373 463.618 55.3373C461.672 55.3373 459.984 55.7725 458.553 56.6428C457.144 57.5132 456.059 58.562 455.299 59.7895V81.4477H446.578Z" fill="#253472"/>
<path d="M116 123.63C116.574 123.767 117.1 123.835 117.579 123.835C119.109 123.835 120.298 123.439 121.146 122.646C121.993 121.854 122.417 120.487 122.417 118.546V91.0752H126.353V118.382C126.353 124.341 123.585 127.321 118.05 127.321C117.175 127.321 116.492 127.266 116 127.157V123.63Z" fill="#253472"/>
<path d="M132.79 109.895C132.79 107.749 133.214 105.815 134.061 104.093C134.922 102.371 136.166 101.004 137.792 99.9931C139.432 98.9817 141.318 98.476 143.451 98.476C146.293 98.476 148.583 99.337 150.318 101.059C152.068 102.781 152.942 104.982 152.942 107.66C152.942 108.385 152.86 109.143 152.696 109.936H136.48V110.018C136.48 112.355 137.218 114.282 138.694 115.799C140.17 117.316 142.084 118.075 144.435 118.075C145.747 118.075 146.949 117.795 148.043 117.234C149.15 116.674 150.059 115.908 150.769 114.938L153.414 116.988C152.403 118.341 151.118 119.4 149.56 120.166C148.002 120.931 146.259 121.314 144.332 121.314C142.022 121.314 139.979 120.788 138.202 119.735C136.426 118.683 135.079 117.303 134.164 115.594C133.248 113.872 132.79 111.972 132.79 109.895ZM136.788 107.127H149.334C149.266 105.542 148.699 104.216 147.633 103.15C146.567 102.07 145.186 101.531 143.492 101.531C141.756 101.531 140.307 102.009 139.145 102.966C137.997 103.922 137.211 105.31 136.788 107.127Z" fill="#253472"/>
<path d="M170.307 120.473V99.3165H173.874V101.613C175.691 99.5215 177.905 98.476 180.516 98.476C182.101 98.476 183.495 98.8382 184.698 99.5625C185.914 100.287 186.844 101.339 187.486 102.72C189.468 99.8906 191.955 98.476 194.948 98.476C197.286 98.476 199.178 99.2414 200.627 100.772C202.076 102.289 202.8 104.449 202.8 107.25V120.473H199.233V107.373C199.233 105.638 198.782 104.285 197.88 103.314C196.992 102.33 195.782 101.838 194.251 101.838C191.819 101.838 189.83 103.178 188.286 105.856C188.34 106.485 188.368 106.95 188.368 107.25V120.473H184.76V107.373C184.76 105.624 184.315 104.264 183.427 103.294C182.552 102.323 181.343 101.838 179.798 101.838C177.325 101.838 175.35 103.164 173.874 105.815V120.473H170.307Z" fill="#253472"/>
<path d="M208.069 102.33L211.636 91.0752H215.716L211.39 102.33H208.069Z" fill="#253472"/>
<path d="M217.335 109.895C217.335 107.749 217.759 105.815 218.606 104.093C219.467 102.371 220.711 101.004 222.337 99.9931C223.978 98.9817 225.864 98.476 227.996 98.476C230.838 98.476 233.128 99.337 234.863 101.059C236.613 102.781 237.488 104.982 237.488 107.66C237.488 108.385 237.406 109.143 237.242 109.936H221.025V110.018C221.025 112.355 221.763 114.282 223.24 115.799C224.716 117.316 226.629 118.075 228.98 118.075C230.292 118.075 231.494 117.795 232.588 117.234C233.695 116.674 234.604 115.908 235.314 114.938L237.959 116.988C236.948 118.341 235.663 119.4 234.105 120.166C232.547 120.931 230.804 121.314 228.877 121.314C226.567 121.314 224.524 120.788 222.747 119.735C220.971 118.683 219.625 117.303 218.709 115.594C217.793 113.872 217.335 111.972 217.335 109.895ZM221.333 107.127H233.879C233.811 105.542 233.244 104.216 232.178 103.15C231.112 102.07 229.731 101.531 228.037 101.531C226.301 101.531 224.852 102.009 223.691 102.966C222.542 103.922 221.757 105.31 221.333 107.127Z" fill="#253472"/>
<path d="M243.535 120.473V99.3165H247.102V101.715C249.07 99.5557 251.421 98.476 254.155 98.476C256.601 98.476 258.59 99.2824 260.12 100.895C261.665 102.494 262.437 104.749 262.437 107.66V120.473H258.829V107.804C258.829 105.931 258.344 104.469 257.373 103.417C256.417 102.364 255.111 101.838 253.458 101.838C250.82 101.838 248.701 103.164 247.102 105.815V120.473H243.535Z" fill="#253472"/>
<path d="M267.193 124.286C267.193 122.277 268.239 120.501 270.33 118.956C269.346 118.177 268.854 117.173 268.854 115.943C268.854 114.262 269.694 112.888 271.375 111.822C270.446 111.125 269.722 110.264 269.202 109.239C268.697 108.214 268.444 107.114 268.444 105.938C268.444 103.834 269.195 102.057 270.699 100.608C272.216 99.1594 274.204 98.435 276.664 98.435C278.182 98.435 279.541 98.7289 280.744 99.3165H288.596V102.412H284.024C284.612 103.451 284.906 104.626 284.906 105.938C284.906 108.029 284.147 109.799 282.63 111.248C281.127 112.697 279.138 113.421 276.664 113.421C275.735 113.421 274.758 113.278 273.733 112.991C272.804 113.66 272.339 114.391 272.339 115.184C272.339 116.195 272.927 116.701 274.102 116.701H280.15C282.842 116.701 284.878 117.296 286.259 118.485C287.653 119.66 288.35 121.232 288.35 123.2C288.35 125.482 287.352 127.348 285.357 128.797C283.375 130.245 280.771 130.97 277.546 130.97C274.375 130.97 271.854 130.375 269.981 129.186C268.122 128.011 267.193 126.378 267.193 124.286ZM270.678 123.876C270.678 125.161 271.286 126.166 272.503 126.89C273.733 127.628 275.4 127.997 277.505 127.997C279.733 127.997 281.503 127.58 282.815 126.747C284.127 125.927 284.783 124.826 284.783 123.446C284.783 121.041 283.143 119.838 279.863 119.838H273.446C271.601 120.945 270.678 122.291 270.678 123.876ZM273.118 102.576C272.271 103.465 271.847 104.585 271.847 105.938C271.847 107.291 272.271 108.412 273.118 109.3C273.979 110.175 275.175 110.612 276.706 110.612C278.195 110.612 279.371 110.168 280.232 109.28C281.106 108.378 281.544 107.264 281.544 105.938C281.544 104.585 281.106 103.465 280.232 102.576C279.371 101.688 278.195 101.244 276.706 101.244C275.175 101.244 273.979 101.688 273.118 102.576Z" fill="#253472"/>
<path d="M290.749 115.266C290.749 113.612 291.35 112.232 292.553 111.125C293.755 110.018 295.477 109.287 297.719 108.931L304.812 107.742V106.287C304.812 104.852 304.341 103.724 303.397 102.904C302.468 102.07 301.245 101.654 299.728 101.654C298.498 101.654 297.384 101.913 296.386 102.433C295.402 102.952 294.603 103.676 293.988 104.606L291.302 102.556C292.245 101.271 293.441 100.273 294.89 99.5625C296.352 98.8382 297.992 98.476 299.81 98.476C302.461 98.476 304.552 99.1935 306.083 100.629C307.614 102.05 308.379 103.936 308.379 106.287V120.473H304.812V117.788C304.019 118.895 302.994 119.763 301.737 120.391C300.493 121.006 299.154 121.314 297.719 121.314C295.628 121.314 293.94 120.767 292.655 119.674C291.384 118.567 290.749 117.098 290.749 115.266ZM294.316 115.143C294.316 116.059 294.678 116.824 295.402 117.439C296.14 118.041 297.111 118.341 298.313 118.341C301.06 118.341 303.227 117.036 304.812 114.426V110.387L298.559 111.494C295.73 111.945 294.316 113.161 294.316 115.143Z" fill="#253472"/>
<path d="M313.197 124.286C313.197 122.277 314.242 120.501 316.333 118.956C315.349 118.177 314.857 117.173 314.857 115.943C314.857 114.262 315.698 112.888 317.379 111.822C316.45 111.125 315.725 110.264 315.206 109.239C314.7 108.214 314.447 107.114 314.447 105.938C314.447 103.834 315.199 102.057 316.702 100.608C318.22 99.1594 320.208 98.435 322.668 98.435C324.185 98.435 325.545 98.7289 326.748 99.3165H334.6V102.412H330.028C330.616 103.451 330.909 104.626 330.909 105.938C330.909 108.029 330.151 109.799 328.634 111.248C327.131 112.697 325.142 113.421 322.668 113.421C321.739 113.421 320.762 113.278 319.737 112.991C318.807 113.66 318.343 114.391 318.343 115.184C318.343 116.195 318.93 116.701 320.106 116.701H326.153C328.846 116.701 330.882 117.296 332.263 118.485C333.657 119.66 334.354 121.232 334.354 123.2C334.354 125.482 333.356 127.348 331.361 128.797C329.379 130.245 326.775 130.97 323.55 130.97C320.379 130.97 317.857 130.375 315.985 129.186C314.126 128.011 313.197 126.378 313.197 124.286ZM316.682 123.876C316.682 125.161 317.29 126.166 318.507 126.89C319.737 127.628 321.404 127.997 323.509 127.997C325.736 127.997 327.506 127.58 328.818 126.747C330.13 125.927 330.786 124.826 330.786 123.446C330.786 121.041 329.146 119.838 325.866 119.838H319.45C317.605 120.945 316.682 122.291 316.682 123.876ZM319.122 102.576C318.274 103.465 317.851 104.585 317.851 105.938C317.851 107.291 318.274 108.412 319.122 109.3C319.983 110.175 321.178 110.612 322.709 110.612C324.199 110.612 325.374 110.168 326.235 109.28C327.11 108.378 327.547 107.264 327.547 105.938C327.547 104.585 327.11 103.465 326.235 102.576C325.374 101.688 324.199 101.244 322.709 101.244C321.178 101.244 319.983 101.688 319.122 102.576Z" fill="#253472"/>
<path d="M336.199 109.895C336.199 107.749 336.622 105.815 337.47 104.093C338.331 102.371 339.574 101.004 341.201 99.9931C342.841 98.9817 344.727 98.476 346.859 98.476C349.702 98.476 351.991 99.337 353.727 101.059C355.476 102.781 356.351 104.982 356.351 107.66C356.351 108.385 356.269 109.143 356.105 109.936H339.889V110.018C339.889 112.355 340.627 114.282 342.103 115.799C343.579 117.316 345.492 118.075 347.843 118.075C349.155 118.075 350.358 117.795 351.451 117.234C352.558 116.674 353.467 115.908 354.178 114.938L356.822 116.988C355.811 118.341 354.526 119.4 352.968 120.166C351.41 120.931 349.668 121.314 347.741 121.314C345.431 121.314 343.388 120.788 341.611 119.735C339.834 118.683 338.488 117.303 337.572 115.594C336.657 113.872 336.199 111.972 336.199 109.895ZM340.196 107.127H352.743C352.674 105.542 352.107 104.216 351.041 103.15C349.975 102.07 348.595 101.531 346.9 101.531C345.164 101.531 343.716 102.009 342.554 102.966C341.406 103.922 340.62 105.31 340.196 107.127Z" fill="#253472"/>
<path d="M369.881 111.453V108.009H381.218V111.453H369.881Z" fill="#253472"/>
<path d="M391.243 123.63C391.817 123.767 392.343 123.835 392.822 123.835C394.353 123.835 395.542 123.439 396.389 122.646C397.236 121.854 397.66 120.487 397.66 118.546V91.0752H401.596V118.382C401.596 124.341 398.829 127.321 393.293 127.321C392.419 127.321 391.735 127.266 391.243 127.157V123.63Z" fill="#253472"/>
<path d="M408.033 109.895C408.033 107.749 408.457 105.815 409.304 104.093C410.165 102.371 411.409 101.004 413.036 99.9931C414.676 98.9817 416.562 98.476 418.694 98.476C421.537 98.476 423.826 99.337 425.562 101.059C427.311 102.781 428.186 104.982 428.186 107.66C428.186 108.385 428.104 109.143 427.94 109.936H411.724V110.018C411.724 112.355 412.462 114.282 413.938 115.799C415.414 117.316 417.327 118.075 419.678 118.075C420.99 118.075 422.193 117.795 423.286 117.234C424.393 116.674 425.302 115.908 426.013 114.938L428.657 116.988C427.646 118.341 426.361 119.4 424.803 120.166C423.245 120.931 421.502 121.314 419.575 121.314C417.266 121.314 415.222 120.788 413.446 119.735C411.669 118.683 410.323 117.303 409.407 115.594C408.491 113.872 408.033 111.972 408.033 109.895ZM412.031 107.127H424.577C424.509 105.542 423.942 104.216 422.876 103.15C421.81 102.07 420.43 101.531 418.735 101.531C416.999 101.531 415.55 102.009 414.389 102.966C413.241 103.922 412.455 105.31 412.031 107.127Z" fill="#253472"/>
<path d="M443.295 117.583L445.816 115.389C447.388 117.357 449.178 118.341 451.187 118.341C452.336 118.341 453.238 118.034 453.894 117.419C454.55 116.804 454.878 116.018 454.878 115.061C454.878 114.419 454.686 113.858 454.304 113.38C453.921 112.902 453.422 112.505 452.807 112.191C452.206 111.877 451.536 111.576 450.798 111.289C450.06 110.988 449.322 110.66 448.584 110.305C447.846 109.936 447.169 109.519 446.554 109.054C445.953 108.576 445.461 107.947 445.078 107.168C444.696 106.376 444.504 105.467 444.504 104.442C444.504 102.733 445.14 101.312 446.411 100.178C447.696 99.0432 449.329 98.476 451.31 98.476C452.828 98.476 454.208 98.7903 455.452 99.419C456.709 100.048 457.72 100.895 458.486 101.961L456.005 104.093C454.775 102.33 453.224 101.449 451.352 101.449C450.285 101.449 449.459 101.715 448.871 102.248C448.283 102.781 447.989 103.485 447.989 104.36C447.989 105.016 448.181 105.59 448.563 106.082C448.946 106.56 449.438 106.963 450.039 107.291C450.654 107.606 451.331 107.913 452.069 108.214C452.807 108.501 453.545 108.829 454.283 109.198C455.021 109.553 455.691 109.963 456.292 110.428C456.907 110.879 457.406 111.487 457.789 112.253C458.171 113.018 458.363 113.899 458.363 114.897C458.349 116.838 457.659 118.396 456.292 119.571C454.939 120.733 453.251 121.314 451.228 121.314C447.935 121.314 445.29 120.07 443.295 117.583Z" fill="#253472"/>
<path d="M462.914 115.266C462.914 113.612 463.515 112.232 464.718 111.125C465.921 110.018 467.643 109.287 469.884 108.931L476.977 107.742V106.287C476.977 104.852 476.506 103.724 475.563 102.904C474.634 102.07 473.41 101.654 471.893 101.654C470.663 101.654 469.549 101.913 468.552 102.433C467.568 102.952 466.768 103.676 466.153 104.606L463.467 102.556C464.41 101.271 465.606 100.273 467.055 99.5625C468.517 98.8382 470.158 98.476 471.975 98.476C474.627 98.476 476.718 99.1935 478.248 100.629C479.779 102.05 480.545 103.936 480.545 106.287V120.473H476.977V117.788C476.185 118.895 475.16 119.763 473.902 120.391C472.659 121.006 471.319 121.314 469.884 121.314C467.793 121.314 466.105 120.767 464.82 119.674C463.549 118.567 462.914 117.098 462.914 115.266ZM466.481 115.143C466.481 116.059 466.843 116.824 467.568 117.439C468.306 118.041 469.276 118.341 470.479 118.341C473.226 118.341 475.392 117.036 476.977 114.426V110.387L470.725 111.494C467.896 111.945 466.481 113.161 466.481 115.143Z" fill="#253472"/>
<path d="M487.084 91.3007C487.084 90.6174 487.323 90.0365 487.802 89.5582C488.294 89.0662 488.888 88.8201 489.585 88.8201C490.282 88.8201 490.87 89.0662 491.348 89.5582C491.827 90.0365 492.066 90.6174 492.066 91.3007C492.066 91.9978 491.827 92.5923 491.348 93.0843C490.87 93.5763 490.282 93.8223 489.585 93.8223C488.888 93.8223 488.294 93.5763 487.802 93.0843C487.323 92.5923 487.084 91.9978 487.084 91.3007ZM487.781 120.473V99.3165H491.348V120.473H487.781Z" fill="#253472"/>
<path d="M496.474 117.583L498.995 115.389C500.567 117.357 502.357 118.341 504.366 118.341C505.514 118.341 506.417 118.034 507.073 117.419C507.729 116.804 508.057 116.018 508.057 115.061C508.057 114.419 507.865 113.858 507.483 113.38C507.1 112.902 506.601 112.505 505.986 112.191C505.385 111.877 504.715 111.576 503.977 111.289C503.239 110.988 502.501 110.66 501.763 110.305C501.025 109.936 500.348 109.519 499.733 109.054C499.132 108.576 498.64 107.947 498.257 107.168C497.875 106.376 497.683 105.467 497.683 104.442C497.683 102.733 498.319 101.312 499.59 100.178C500.875 99.0432 502.508 98.476 504.489 98.476C506.007 98.476 507.387 98.7903 508.631 99.419C509.888 100.048 510.899 100.895 511.665 101.961L509.184 104.093C507.954 102.33 506.403 101.449 504.53 101.449C503.464 101.449 502.638 101.715 502.05 102.248C501.462 102.781 501.168 103.485 501.168 104.36C501.168 105.016 501.36 105.59 501.742 106.082C502.125 106.56 502.617 106.963 503.218 107.291C503.833 107.606 504.51 107.913 505.248 108.214C505.986 108.501 506.724 108.829 507.462 109.198C508.2 109.553 508.87 109.963 509.471 110.428C510.086 110.879 510.585 111.487 510.968 112.253C511.35 113.018 511.542 113.899 511.542 114.897C511.528 116.838 510.838 118.396 509.471 119.571C508.118 120.733 506.43 121.314 504.407 121.314C501.114 121.314 498.469 120.07 496.474 117.583Z" fill="#253472"/>
<path d="M525.892 102.597V99.3165H529.89V96.7129C529.89 94.4305 530.573 92.5718 531.94 91.1367C533.32 89.7017 535.138 88.9841 537.393 88.9841C539.635 88.9841 541.459 89.6675 542.867 91.0342L540.632 93.6378C539.785 92.6948 538.719 92.2233 537.434 92.2233C536.259 92.2233 535.309 92.6196 534.585 93.4123C533.86 94.205 533.498 95.2779 533.498 96.6309V99.3165H540.837V102.597H533.498V120.473H529.89V102.597H525.892Z" fill="#253472"/>
<path d="M542.58 115.266C542.58 113.612 543.181 112.232 544.384 111.125C545.587 110.018 547.309 109.287 549.55 108.931L556.643 107.742V106.287C556.643 104.852 556.172 103.724 555.229 102.904C554.3 102.07 553.076 101.654 551.559 101.654C550.329 101.654 549.215 101.913 548.218 102.433C547.234 102.952 546.434 103.676 545.819 104.606L543.133 102.556C544.076 101.271 545.272 100.273 546.721 99.5625C548.183 98.8382 549.823 98.476 551.641 98.476C554.293 98.476 556.384 99.1935 557.914 100.629C559.445 102.05 560.211 103.936 560.211 106.287V120.473H556.643V117.788C555.851 118.895 554.826 119.763 553.568 120.391C552.325 121.006 550.985 121.314 549.55 121.314C547.459 121.314 545.771 120.767 544.486 119.674C543.215 118.567 542.58 117.098 542.58 115.266ZM546.147 115.143C546.147 116.059 546.509 116.824 547.234 117.439C547.972 118.041 548.942 118.341 550.145 118.341C552.892 118.341 555.058 117.036 556.643 114.426V110.387L550.391 111.494C547.562 111.945 546.147 113.161 546.147 115.143Z" fill="#253472"/>
<path d="M566.75 91.3007C566.75 90.6174 566.989 90.0365 567.468 89.5582C567.96 89.0662 568.554 88.8201 569.251 88.8201C569.948 88.8201 570.536 89.0662 571.014 89.5582C571.493 90.0365 571.732 90.6174 571.732 91.3007C571.732 91.9978 571.493 92.5923 571.014 93.0843C570.536 93.5763 569.948 93.8223 569.251 93.8223C568.554 93.8223 567.96 93.5763 567.468 93.0843C566.989 92.5923 566.75 91.9978 566.75 91.3007ZM567.447 120.473V99.3165H571.014V120.473H567.447Z" fill="#253472"/>
<path d="M578.559 120.473V99.3165H582.126V101.961C583.862 99.9111 585.919 98.886 588.297 98.886C588.953 98.886 589.561 98.9749 590.121 99.1525V102.843C589.383 102.651 588.679 102.556 588.01 102.556C585.522 102.556 583.561 103.745 582.126 106.123V120.473H578.559Z" fill="#253472"/>
<path d="M592.376 109.895C592.376 107.749 592.8 105.815 593.647 104.093C594.508 102.371 595.752 101.004 597.378 99.9931C599.018 98.9817 600.905 98.476 603.037 98.476C605.879 98.476 608.169 99.337 609.904 101.059C611.654 102.781 612.528 104.982 612.528 107.66C612.528 108.385 612.446 109.143 612.282 109.936H596.066V110.018C596.066 112.355 596.804 114.282 598.28 115.799C599.756 117.316 601.67 118.075 604.021 118.075C605.333 118.075 606.535 117.795 607.629 117.234C608.736 116.674 609.645 115.908 610.355 114.938L613 116.988C611.989 118.341 610.704 119.4 609.146 120.166C607.588 120.931 605.845 121.314 603.918 121.314C601.608 121.314 599.565 120.788 597.788 119.735C596.012 118.683 594.665 117.303 593.75 115.594C592.834 113.872 592.376 111.972 592.376 109.895ZM596.374 107.127H608.92C608.852 105.542 608.285 104.216 607.219 103.15C606.153 102.07 604.772 101.531 603.078 101.531C601.342 101.531 599.893 102.009 598.731 102.966C597.583 103.922 596.798 105.31 596.374 107.127Z" fill="#253472"/>
</svg>
